<svg xmlns="http://www.w3.org/2000/svg" width="82" height="83" viewBox="0 0 82 83"><g fill="none" fill-rule="evenodd"><g fill-rule="nonzero"><path fill="#CC8E58" d="m65.557 14.808-2.64-.684-3.763 1.973-6.341 4.988-3.202-.932-3.467-.59-5.217.59-5.217-.59-3.467.59-3.202.932-6.341-4.988-3.764-1.973-2.64.684L15 16.75v7.411l.921 3.092.094 3.092 2.046 4.055.14 4.272-.936 4.817-.453 5.888 2.311 3.744 3.608 3.061.797.668 2.874 5.95 4.467 3.155 1.655 1.18 8.403 1.74 8.403-1.74 1.655-1.18 4.467-3.154 2.874-5.95.797-.669 3.607-3.06 2.312-3.745-.453-5.888-.937-4.817.14-4.272 2.047-4.055.093-3.092.922-3.092V16.75z"/><path fill="#CC8E58" d="m51.657 31.308-2.452-.404-1.031-4.195-7.247 7.97-5.217-5.733-2.03-2.237-1.031 4.195-2.452.404-1.937 2.035 1.031 2.906.578-1.554 2.749-.963 1.874 2.594.047 1.803-2.015 6.556-1 5.158 5.248-5.469 2.734-.885 1.42-8.81 1.422 8.81 2.733.885 5.248 5.47-1-5.159-2.014-6.556.047-1.803 1.874-2.594 2.749.963.578 1.554 1.03-2.906z"/><path fill="#2D2113" d="m26.261 22.048-3.748-4.195-3.999-1.196-1.562.357-.609 2.595v4.645l2.14 3.791 3.717 2.3 3.686-3.185z"/><path fill="#2C1800" d="m40.927 33.732-.953-9.214.953.156z"/><path fill="#A8633A" d="m32.618 20.898-3.577.187-6.341-4.988-3.764-1.973-2.64.684L15 16.75v4.692l1.343.979v-2.812l.61-2.595 1.561-.357 3.999 1.196 3.748 4.195-.375 5.112-3.686 3.185-2.42 7.784 4.529 1.755 3.654-3.915 1.328.28-1.03-2.906 1.327-1.398.609-.637 2.452-.404 1.03-4.195 2.39-.186 2.015-2.005 1.687 2.455 1.156 7.706V22.048z"/><path fill="#CC8E58" d="m19.123 53.121-.5-5.795 2.687-6.214 2.999-1.228-4.53-1.755L31.197 22.42l-5.31 4.739-3.687 3.186-4.139 4.055-.796 9.089-.453 5.888z"/><path fill="#A8633A" d="m29.65 30.531 4.03-3.822-1.031 4.195-2.452.404-.812.854z"/><path fill="#EBE8DB" d="m32.524 57.379-2.874-2.47-2.42-8.562 1.311-4.428-.578-3.79 4.561 6.556 3.186-1.43 3.796.234-.313 2.16-2.64 1.242-.843 2.082.422 1.833.765.855-1.874 4.614h-2.155l-1.671-2.237v1.616z"/><path fill="#5D2900" d="m25.886 27.16.375-5.112 3.03 1.01 1.906-.637zm-.453-4.475.453 4.475.375-5.112-2.093-2.284z"/><path fill="#A8633A" d="m18.061 34.4-2.046-4.055L15 24.16v-2.718l1.343.979v1.833l2.14 3.791 3.717 2.3zm11.23 1.849v-2.207l3.811-1.74-.484 1.43-2.75.963z"/><path fill="#D6B795" d="m32.727 38.672-2.265-.652-1.171-1.771-1.328-.28-.734.777.734 1.383.75 1.072 3.811 5.484 2.015-6.556z"/><path fill="#DBD5C3" d="m35.367 61.527-1.047-3.651-1.796-.497-2.874-2.47-.859-3.015-3.576 4.381-1.687.575 2.874 5.95 4.467 3.155 3.451-1.74 3.296-1.663z"/><path fill="#2D2113" d="m55.593 22.048 3.748-4.195 3.999-1.196 1.561.357.61 2.595v4.645l-2.14 3.791-3.717 2.3-3.686-3.185z"/><path fill="#2C1800" d="M47.361 38.129v-1.802l1.874-2.595 2.75.963.577 1.554-1.171 1.771-2.265.653z"/><path d="M49.72 36.855c.859 0 1.577-.59 1.765-1.383.015.078.015.155.015.249 0 1.025-.78 1.849-1.749 1.849-.968 0-1.75-.824-1.75-1.85v-.046c.266.684.938 1.18 1.719 1.18Z" fill="#4D2F00"/><path d="M49.72 36.855a1.853 1.853 0 0 1-1.718-1.18c.031-.996.796-1.803 1.75-1.803.89 0 1.623.699 1.733 1.6a1.809 1.809 0 0 1-1.765 1.383Z" fill="#2C1800"/><path d="m50.485 35.767.906-.28s-.344-.932-1.702-.73c0 .016.687.606.796 1.01Z" fill="#ECD9CB"/><path fill="#2C1800" d="m40.927 33.732.953-9.214-.953.156z"/><path fill="#262626" d="m45.3 46.891-2.64-1.243h-3.467l-2.64 1.243-.843 2.082.422 1.833 2.187 2.455 2.608.777 2.608-.777 2.187-2.455.422-1.833z"/><path fill="#000" d="m42.083 50.356.921.31h1.187l.875-1.537-1.687-1.197-2.452-.513-2.452.513-1.687 1.197.875 1.538h1.187l.921-.311-.796 1.025-2.078.28 1.422 1.6 2.608.777 2.608-.777 1.422-1.6-2.078-.28z"/><path fill="#000" d="M48.986 56.275h-2.155l-5.904-1.32-5.904 1.32h-2.155l-1.671-2.237v1.616l1.327 1.725 2.5.699 3.295-1.523 2.608.761 2.608-.76 3.296 1.522 2.499-.7 1.327-1.724v-1.616z"/><path fill="#918A85" d="m46.83 58.078-3.295-1.523-2.608.761-2.608-.76-3.296 1.522 3.296 1.77 2.608.514 2.608-.513z"/><path fill="#5C524A" d="m46.83 56.275-1.873-4.614-1.422 1.6-2.608.777-2.608-.777-1.422-1.6-1.874 4.614 5.904-1.32z"/><path fill="#EBE8DB" d="m46.83 58.078-3.295 1.77-2.608.514-2.608-.513-3.296-1.771-.703-.202 1.047 3.65 3.483 1.601 2.077.544 2.077-.544 3.483-1.6 1.047-3.651z"/><path fill="#A8633A" d="m49.236 20.898 3.577.187 6.34-4.988 3.766-1.973 2.64.684 1.296 1.942v4.692l-1.343.979v-2.812l-.61-2.595-1.561-.357-3.999 1.196-3.748 4.195.375 5.112 3.686 3.185 2.42 7.784-4.529 1.755-3.655-3.915-1.327.28 1.03-2.906-1.327-1.398-.61-.637-2.451-.404-1.031-4.195-2.39-.186-2.015-2.005-1.686 2.455-1.156 7.706V22.048z"/><path fill="#CC8E58" d="m62.73 53.121.5-5.795-2.686-6.214-2.999-1.228 4.53-1.755L50.657 22.42l5.31 4.739 3.687 3.185 4.139 4.055.796 9.089.453 5.888z"/><path fill="#A8633A" d="m52.813 21.085-3.202-.932-3.467-.59-5.217.59-5.217-.59-3.467.59-3.202.932 3.577-.187 8.309 1.15 8.309-1.15zm-.609 9.446-4.03-3.822 1.03 4.195 2.453.404.812.854z"/><path fill="#EBE8DB" d="m49.33 57.379 2.874-2.47 2.42-8.562-1.312-4.428.578-3.79-4.56 6.556-3.186-1.43-3.796.234.313 2.16 2.64 1.242.843 2.082-.422 1.833-.765.855 1.874 4.614h2.155l1.671-2.237v1.616z"/><path fill="#A8633A" d="m40.927 34.68 7.247-7.971-2.39-.186-2.015-2.005.375-1.6-3.217-.87-3.218.87.375 1.6-2.014 2.005-2.39.186 7.247 7.97z"/><path fill="#5D2900" d="m55.968 27.16-.375-5.112-3.03 1.01-1.906-.637zm.452-4.475-.452 4.475-.375-5.112 2.093-2.284z"/><path fill="#A8633A" d="m63.793 34.4 2.046-4.055 1.015-6.184v-2.719l-1.343.979v1.833l-2.14 3.791-3.717 2.3zm-11.23 1.849v-2.207l-3.811-1.74.484 1.43 2.749.963z"/><path fill="#CC8E58" d="m45.035 36.606 1.109-7.66-5.217 5.733z"/><path fill="#807664" d="m50.985 65.955-6.747-3.403-1.234.575-2.077.544-2.077-.544-1.234-.575-6.747 3.403 1.655 1.18 8.403 1.74 8.403-1.74z"/><path d="m25.527 38.579-1.219 1.305-2.998 1.227-2.688 6.215.5 5.795 3.608 3.061v-3.946l1.234-3.527 2.468-4.568-.171-6.37zm35.017 2.532-3-1.227-1.216-1.305-.736-.808-.172 6.37 2.467 4.568 1.234 3.527v3.946l3.608-3.06.5-5.796z" fill="#DBD5C3"/><path fill="#D6B795" d="m53.89 35.969-1.327.28-1.172 1.77-2.264.653-1.812-.543 2.015 6.556 3.81-5.484.75-1.072.734-1.383z"/><path fill="#CFC7AF" d="m55.593 37.771-.969-1.025-.734 1.383-.578 3.79 1.312 4.428-1.561 5.547 3.576 4.381 1.687.575 3.311-2.812z"/><path fill="#DBD5C3" d="m56.64 56.275-3.577-4.38-.86 3.013-2.873 2.47-1.796.498-1.047 3.65-2.249 1.026 3.296 1.663 3.451 1.74 4.467-3.154 2.874-5.95z"/><path fill="#CFC7AF" d="m26.261 37.771.968-1.025.734 1.383.578 3.79-1.312 4.428 1.562 5.547-3.576 4.381-1.687.575-3.311-2.812z"/><path fill="#2C1800" d="M34.493 38.129v-1.802l-1.876-2.595-2.748.963-.578 1.554 1.172 1.771 2.265.653z"/><path d="M32.133 36.855c-.859 0-1.577-.59-1.765-1.383-.015.078-.015.155-.015.249 0 1.025.78 1.849 1.75 1.849.967 0 1.748-.824 1.748-1.85v-.046a1.854 1.854 0 0 1-1.718 1.18Z" fill="#4D2F00"/><path d="M32.133 36.855c.781 0 1.453-.497 1.718-1.18-.03-.996-.795-1.803-1.749-1.803-.89 0-1.624.699-1.734 1.6a1.809 1.809 0 0 0 1.765 1.383Z" fill="#2C1800"/><path d="m31.368 35.767-.906-.28s.344-.931 1.704-.729c0 .016-.688.606-.797 1.01Z" fill="#ECD9CB"/><path fill="#D9AA8B" d="m40.927 34.68-1.734 10.968h3.468z"/><g fill="#CC8E58"><path d="M59.806 58.7v-.28h.856v.28h-.286v.92h-.284v-.92h-.286Zm2.033-.28h.095v1.2h-.304v-.54l-.247.26h-.037l-.247-.26v.54h-.304v-1.2h.114l.436.52.494-.52Z"/><path d="M60.87 60.98c-1.024 0-1.861-.88-1.861-1.96s.836-1.96 1.861-1.96c1.026 0 1.862.88 1.862 1.96s-.836 1.96-1.862 1.96Zm0-3.7c-.911 0-1.633.78-1.633 1.72 0 .96.74 1.72 1.633 1.72.912 0 1.634-.78 1.634-1.72s-.722-1.72-1.634-1.72Z"/></g></g><path d="M0 0h82v83H0z"/></g></svg>